<?xml version="1.0" encoding="utf-8"?>
<!-- Generator: Adobe Illustrator 23.1.0, SVG Export Plug-In . SVG Version: 6.00 Build 0)  -->
<svg version="1.1" id="Слой_1" xmlns="http://www.w3.org/2000/svg" xmlns:xlink="http://www.w3.org/1999/xlink" x="0px" y="0px"
	 viewBox="0 0 59 50.3" style="enable-background:new 0 0 59 50.3;" xml:space="preserve">
<style type="text/css">
	.st0{fill:#FC9D9D;}
	.st1{clip-path:url(#SVGID_2_);}
	.st2{fill:#001E67;}
</style>
<g>
	<path class="st0" d="M43.6,11.7l-1.7,3.2l-5.6-2.1l-9.2,17.7L23,29l9.2-17.7l-5.6-2.1l1.7-3.2L43.6,11.7z"/>
</g>
<g>
	<defs>
		<rect id="SVGID_1_" width="59" height="50.3"/>
	</defs>
	<clipPath id="SVGID_2_">
		<use xlink:href="#SVGID_1_"  style="overflow:visible;"/>
	</clipPath>
	<g class="st1">
		<path class="st2" d="M57.2,10.8c-1.2-0.2-2.5,0.4-2.7,1.5l-4,15.4c-0.5,1.8-2.3,3.1-4.5,3.1c-1.3,0-2.3,0.9-2.3,2c0,1.1,1,2,2.3,2
			c2.1,0,4.1-0.6,5.8-1.7c1.6-1.1,2.8-2.7,3.2-4.4l4-15.4C59.2,12,58.4,11,57.2,10.8z"/>
		<path class="st2" d="M46,38.7H15.8c-1.3,0-2.3-0.9-2.3-2c0,0,0,0,0,0c0,0,0,0,0,0c0-1.1,1-2,2.3-2h18.7c1.3,0,2.3-0.9,2.3-2
			c0-1.1-1-2-2.3-2H17.5L14.8,9.4l0,0C14,4,8.6,0,2.3,0C1,0,0,0.9,0,2s1,2,2.3,2c4,0,7.4,2.5,7.9,5.9l2.7,21.5
			c-2.4,0.9-4.1,3-4.1,5.4c0,0,0,0,0,0c0,0,0,0,0,0c0,3.3,3.1,5.9,6.9,5.9h0.9c-0.2,0.6-0.4,1.2-0.4,1.9c0,3.2,3.1,5.8,6.8,5.8
			s6.8-2.6,6.8-5.8c0-0.7-0.1-1.3-0.4-1.9h9.9c-0.2,0.6-0.4,1.2-0.4,1.9c0,3.2,3,5.8,6.8,5.8c3.7,0,6.8-2.6,6.8-5.8
			C52.8,41.3,49.7,38.7,46,38.7z M23.2,46.4c-1.2,0-2.2-0.8-2.2-1.9c0-1,1-1.9,2.2-1.9s2.2,0.8,2.2,1.9
			C25.4,45.6,24.4,46.4,23.2,46.4z M46,46.4c-1.2,0-2.2-0.8-2.2-1.9c0-1,1-1.9,2.2-1.9c1.2,0,2.2,0.8,2.2,1.9
			C48.2,45.6,47.2,46.4,46,46.4z"/>
	</g>
</g>
</svg>
