<svg version="1.1" id="Слой_1" xmlns="http://www.w3.org/2000/svg" xmlns:xlink="http://www.w3.org/1999/xlink" x="0" y="0" viewBox="0 0 59 50.3" xml:space="preserve"><style>.st2{fill:#001e67}</style><path d="M43.6 11.7l-1.7 3.2-5.6-2.1-9.2 17.7L23 29l9.2-17.7-5.6-2.1L28.3 6l15.3 5.7z" fill="#fc9d9d"/><defs><path id="SVGID_1_" d="M0 0h59v50.3H0z"/></defs><clipPath id="SVGID_2_"><use xlink:href="#SVGID_1_" overflow="visible"/></clipPath><g clip-path="url(#SVGID_2_)"><path class="st2" d="M57.2 10.8c-1.2-.2-2.5.4-2.7 1.5l-4 15.4c-.5 1.8-2.3 3.1-4.5 3.1-1.3 0-2.3.9-2.3 2s1 2 2.3 2c2.1 0 4.1-.6 5.8-1.7 1.6-1.1 2.8-2.7 3.2-4.4l4-15.4c.2-1.3-.6-2.3-1.8-2.5z"/><path class="st2" d="M46 38.7H15.8c-1.3 0-2.3-.9-2.3-2s1-2 2.3-2h18.7c1.3 0 2.3-.9 2.3-2s-1-2-2.3-2h-17L14.8 9.4C14 4 8.6 0 2.3 0 1 0 0 .9 0 2s1 2 2.3 2c4 0 7.4 2.5 7.9 5.9l2.7 21.5c-2.4.9-4.1 3-4.1 5.4 0 3.3 3.1 5.9 6.9 5.9h.9c-.2.6-.4 1.2-.4 1.9 0 3.2 3.1 5.8 6.8 5.8s6.8-2.6 6.8-5.8c0-.7-.1-1.3-.4-1.9h9.9c-.2.6-.4 1.2-.4 1.9 0 3.2 3 5.8 6.8 5.8 3.7 0 6.8-2.6 6.8-5.8.3-3.3-2.8-5.9-6.5-5.9zm-22.8 7.7c-1.2 0-2.2-.8-2.2-1.9 0-1 1-1.9 2.2-1.9s2.2.8 2.2 1.9c0 1.1-1 1.9-2.2 1.9zm22.8 0c-1.2 0-2.2-.8-2.2-1.9 0-1 1-1.9 2.2-1.9 1.2 0 2.2.8 2.2 1.9 0 1.1-1 1.9-2.2 1.9z"/></g></svg>