<svg width="16" height="15" viewBox="0 0 16 15" fill="none" xmlns="http://www.w3.org/2000/svg"><path d="M14.438 5.426l-3.993-.574-1.777-3.61a.83.83 0 00-.492-.437.931.931 0 00-.63 0 .836.836 0 00-.464.437l-1.777 3.61-3.992.574a.88.88 0 00-.575.328 1.026 1.026 0 00-.191.601c.018.22.11.41.273.575l2.9 2.816-.684 3.992c-.036.219 0 .42.11.602.127.2.3.328.52.383a.844.844 0 00.628-.082l3.582-1.86 3.582 1.86c.2.109.41.136.629.082a.745.745 0 00.492-.383.786.786 0 00.137-.602l-.684-3.992L14.93 6.93a.787.787 0 00.246-.575.825.825 0 00-.192-.601.781.781 0 00-.546-.328zM10.636 9.28l.629 3.801-3.391-1.805-3.39 1.805.628-3.8-2.734-2.68 3.8-.547 1.696-3.446L9.57 6.055l3.801.547-2.734 2.68z" fill="#FFBD69"/></svg>